ISO-10303-21;
HEADER;
FILE_DESCRIPTION (( 'STEP AP214' ),
    '1' );
FILE_NAME ('chi ti?t m?t bích.STEP',
    '2026-09-30T14:31:32',
    ( 'Windows User' ),
    ( '' ),
    'SwSTEP 2.0',
    'SolidWorks 2024',
    '' );
FILE_SCHEMA (( 'AUTOMOTIVE_DESIGN' ));
ENDSEC;

DATA;
#1 = DIRECTION ( 'NONE',  ( -0.000000000000000000, 1.000000000000000000, -0.000000000000000000 ) ) ;
#2 = EDGE_CURVE ( 'NONE', #758, #74, #641, .T. ) ;
#3 = LINE ( 'NONE', #303, #526 ) ;
#4 = ORIENTED_EDGE ( 'NONE', *, *, #398, .F. ) ;
#5 = AXIS2_PLACEMENT_3D ( 'NONE', #620, #311, #101 ) ;
#6 = EDGE_CURVE ( 'NONE', #191, #397, #754, .T. ) ;
#7 = ORIENTED_EDGE ( 'NONE', *, *, #437, .T. ) ;
#8 = LINE ( 'NONE', #254, #119 ) ;
#9 = ADVANCED_FACE ( 'NONE', ( #145 ), #270, .F. ) ;
#10 = VERTEX_POINT ( 'NONE', #401 ) ;
#11 = VERTEX_POINT ( 'NONE', #650 ) ;
#12 = AXIS2_PLACEMENT_3D ( 'NONE', #525, #782, #158 ) ;
#13 = ORIENTED_EDGE ( 'NONE', *, *, #614, .F. ) ;
#14 = EDGE_LOOP ( 'NONE', ( #310, #528 ) ) ;
#15 = DIRECTION ( 'NONE',  ( 0.000000000000000000, 1.000000000000000000, 0.000000000000000000 ) ) ;
#16 = FACE_BOUND ( 'NONE', #383, .T. ) ;
#17 = VERTEX_POINT ( 'NONE', #339 ) ;
#18 = VERTEX_POINT ( 'NONE', #540 ) ;
#19 = DIRECTION ( 'NONE',  ( -0.000000000000000000, 1.000000000000000000, -0.000000000000000000 ) ) ;
#20 = ORIENTED_EDGE ( 'NONE', *, *, #58, .T. ) ;
#21 = SHAPE_DEFINITION_REPRESENTATION ( #627, #646 ) ;
#22 = FACE_OUTER_BOUND ( 'NONE', #684, .T. ) ;
#23 = AXIS2_PLACEMENT_3D ( 'NONE', #704, #150, #340 ) ;
#24 = ORIENTED_EDGE ( 'NONE', *, *, #529, .T. ) ;
#25 = DIRECTION ( 'NONE',  ( 0.000000000000000000, 0.000000000000000000, 1.000000000000000000 ) ) ;
#26 = VERTEX_POINT ( 'NONE', #285 ) ;
#27 = CIRCLE ( 'NONE', #774, 7.500000000000000000 ) ;
#28 = AXIS2_PLACEMENT_3D ( 'NONE', #572, #703, #206 ) ;
#29 = EDGE_LOOP ( 'NONE', ( #496, #390, #328, #20 ) ) ;
#30 = DIRECTION ( 'NONE',  ( 0.000000000000000000, 1.000000000000000000, 0.000000000000000000 ) ) ;
#31 = CARTESIAN_POINT ( 'NONE',  ( 0.000000000000000000, 50.00000000000000000, 0.000000000000000000 ) ) ;
#32 = EDGE_CURVE ( 'NONE', #11, #456, #532, .T. ) ;
#33 = ORIENTED_EDGE ( 'NONE', *, *, #757, .F. ) ;
#34 = DIRECTION ( 'NONE',  ( 0.000000000000000000, 0.000000000000000000, 1.000000000000000000 ) ) ;
#35 = FILL_AREA_STYLE ('',( #417 ) ) ;
#36 = AXIS2_PLACEMENT_3D ( 'NONE', #598, #226, #595 ) ;
#37 = DIRECTION ( 'NONE',  ( -0.000000000000000000, 1.000000000000000000, -0.000000000000000000 ) ) ;
#38 = EDGE_CURVE ( 'NONE', #69, #758, #215, .T. ) ;
#39 = CYLINDRICAL_SURFACE ( 'NONE', #448, 7.500000000000000000 ) ;
#40 = CYLINDRICAL_SURFACE ( 'NONE', #97, 21.00000000000000000 ) ;
#41 = AXIS2_PLACEMENT_3D ( 'NONE', #800, #174, #188 ) ;
#42 = PLANE ( 'NONE',  #485 ) ;
#43 = DIRECTION ( 'NONE',  ( 0.000000000000000000, 1.000000000000000000, 0.000000000000000000 ) ) ;
#44 = ADVANCED_FACE ( 'NONE', ( #159 ), #229, .F. ) ;
#45 = DIRECTION ( 'NONE',  ( 0.000000000000000000, 0.000000000000000000, -1.000000000000000000 ) ) ;
#46 = ORIENTED_EDGE ( 'NONE', *, *, #696, .T. ) ;
#47 = CARTESIAN_POINT ( 'NONE',  ( 0.000000000000000000, 47.99999999999998579, -21.00000000000000000 ) ) ;
#48 = ADVANCED_FACE ( 'NONE', ( #167 ), #346, .T. ) ;
#49 = DIRECTION ( 'NONE',  ( 0.000000000000000000, 1.000000000000000000, 0.000000000000000000 ) ) ;
#50 = DIRECTION ( 'NONE',  ( 0.000000000000000000, 0.000000000000000000, 1.000000000000000000 ) ) ;
#51 = CARTESIAN_POINT ( 'NONE',  ( 44.00000000000000000, 20.00000000000000000, 1.536251789090978676E-13 ) ) ;
#52 = AXIS2_PLACEMENT_3D ( 'NONE', #695, #177, #199 ) ;
#53 = DIRECTION ( 'NONE',  ( 0.000000000000000000, 0.000000000000000000, 1.000000000000000000 ) ) ;
#54 = ORIENTED_EDGE ( 'NONE', *, *, #687, .T. ) ;
#55 = DIRECTION ( 'NONE',  ( 0.000000000000000000, 0.000000000000000000, 1.000000000000000000 ) ) ;
#56 = AXIS2_PLACEMENT_3D ( 'NONE', #421, #559, #427 ) ;
#57 = CARTESIAN_POINT ( 'NONE',  ( 9.184850993605147944E-16, 0.000000000000000000, -51.50000000000000000 ) ) ;
#58 = EDGE_CURVE ( 'NONE', #204, #151, #712, .T. ) ;
#59 = DIRECTION ( 'NONE',  ( -0.000000000000000000, 1.000000000000000000, -0.000000000000000000 ) ) ;
#60 = CARTESIAN_POINT ( 'NONE',  ( -43.99999999999999289, 20.00000000000000000, 7.499999999999539035 ) ) ;
#61 = LINE ( 'NONE', #498, #235 ) ;
#62 = AXIS2_PLACEMENT_3D ( 'NONE', #656, #37, #289 ) ;
#63 = CARTESIAN_POINT ( 'NONE',  ( -43.99999999999999289, 0.000000000000000000, 7.499999999999539035 ) ) ;
#64 = EDGE_LOOP ( 'NONE', ( #198, #755, #570, #690 ) ) ;
#65 = CARTESIAN_POINT ( 'NONE',  ( -3.072503578181957353E-13, 20.00000000000000000, 44.00000000000000000 ) ) ;
#66 = AXIS2_PLACEMENT_3D ( 'NONE', #98, #246, #668 ) ;
#67 = EDGE_CURVE ( 'NONE', #758, #763, #544, .T. ) ;
#68 = AXIS2_PLACEMENT_3D ( 'NONE', #330, #700, #366 ) ;
#69 = VERTEX_POINT ( 'NONE', #603 ) ;
#70 = ORIENTED_EDGE ( 'NONE', *, *, #323, .F. ) ;
#71 = ORIENTED_EDGE ( 'NONE', *, *, #673, .F. ) ;
#72 = PLANE ( 'NONE',  #546 ) ;
#73 = VERTEX_POINT ( 'NONE', #424 ) ;
#74 = VERTEX_POINT ( 'NONE', #93 ) ;
#75 = DIRECTION ( 'NONE',  ( -0.000000000000000000, 1.000000000000000000, -0.000000000000000000 ) ) ;
#76 = DIRECTION ( 'NONE',  ( -0.000000000000000000, 1.000000000000000000, -0.000000000000000000 ) ) ;
#77 = ADVANCED_FACE ( 'NONE', ( #661 ), #287, .T. ) ;
#78 = CARTESIAN_POINT ( 'NONE',  ( -4.000000000000000000, 50.00000000000000000, -16.84271928232701043 ) ) ;
#79 = CARTESIAN_POINT ( 'NONE',  ( 4.000000000000000000, 0.000000000000000000, -16.84271928232701043 ) ) ;
#80 = ORIENTED_EDGE ( 'NONE', *, *, #139, .T. ) ;
#81 = AXIS2_PLACEMENT_3D ( 'NONE', #79, #464, #147 ) ;
#82 = EDGE_CURVE ( 'NONE', #314, #205, #723, .T. ) ;
#83 = CARTESIAN_POINT ( 'NONE',  ( 9.184850993605147944E-16, 0.000000000000000000, -51.50000000000000000 ) ) ;
#84 = FACE_OUTER_BOUND ( 'NONE', #653, .T. ) ;
#85 = EDGE_LOOP ( 'NONE', ( #643, #140 ) ) ;
#86 = CARTESIAN_POINT ( 'NONE',  ( 4.000000000000000000, 50.00000000000000000, -16.84271928232701043 ) ) ;
#87 = CYLINDRICAL_SURFACE ( 'NONE', #66, 7.500000000000000000 ) ;
#88 = EDGE_CURVE ( 'NONE', #456, #495, #389, .T. ) ;
#89 = ORIENTED_EDGE ( 'NONE', *, *, #228, .T. ) ;
#90 = ORIENTED_EDGE ( 'NONE', *, *, #200, .T. ) ;
#91 = ORIENTED_EDGE ( 'NONE', *, *, #128, .F. ) ;
#92 = LINE ( 'NONE', #288, #142 ) ;
#93 = CARTESIAN_POINT ( 'NONE',  ( 0.000000000000000000, 50.00000000000000000, 12.50000000000000000 ) ) ;
#94 = ORIENTED_EDGE ( 'NONE', *, *, #420, .F. ) ;
#95 = EDGE_LOOP ( 'NONE', ( #411, #152, #90, #592 ) ) ;
#96 = DIRECTION ( 'NONE',  ( 0.000000000000000000, 1.000000000000000000, 0.000000000000000000 ) ) ;
#97 = AXIS2_PLACEMENT_3D ( 'NONE', #163, #779, #45 ) ;
#98 = CARTESIAN_POINT ( 'NONE',  ( 44.00000000000000000, 0.000000000000000000, 1.536251789090978676E-13 ) ) ;
#99 = DIRECTION ( 'NONE',  ( 8.659560562354926695E-17, -0.7071067811865482389, 0.7071067811865469066 ) ) ;
#100 = ORIENTED_EDGE ( 'NONE', *, *, #479, .T. ) ;
#101 = DIRECTION ( 'NONE',  ( 0.000000000000000000, 0.000000000000000000, 1.000000000000000000 ) ) ;
#102 = DIRECTION ( 'NONE',  ( -0.000000000000000000, 1.000000000000000000, -0.000000000000000000 ) ) ;
#103 = VECTOR ( 'NONE', #354, 1000.000000000000000 ) ;
#104 = PRODUCT_DEFINITION_FORMATION_WITH_SPECIFIED_SOURCE ( 'ANY', '', #640, .NOT_KNOWN. ) ;
#105 = EDGE_CURVE ( 'NONE', #763, #213, #674, .T. ) ;
#106 = DIRECTION ( 'NONE',  ( -0.000000000000000000, 1.000000000000000000, -0.000000000000000000 ) ) ;
#107 = SURFACE_STYLE_USAGE ( .BOTH. , #414 ) ;
#108 = CARTESIAN_POINT ( 'NONE',  ( 0.000000000000000000, 0.000000000000000000, 0.000000000000000000 ) ) ;
#109 = DIRECTION ( 'NONE',  ( 0.000000000000000000, -0.7071067811865482389, -0.7071067811865469066 ) ) ;
#110 = CARTESIAN_POINT ( 'NONE',  ( -43.99999999999999289, 0.000000000000000000, 7.499999999999539035 ) ) ;
#111 = DIRECTION ( 'NONE',  ( -0.000000000000000000, -1.000000000000000000, -0.000000000000000000 ) ) ;
#112 = DIRECTION ( 'NONE',  ( 0.000000000000000000, 0.000000000000000000, 1.000000000000000000 ) ) ;
#113 = CARTESIAN_POINT ( 'NONE',  ( 0.000000000000000000, 0.000000000000000000, 0.000000000000000000 ) ) ;
#114 = CIRCLE ( 'NONE', #418, 56.00000000000000000 ) ;
#115 = CARTESIAN_POINT ( 'NONE',  ( -43.99999999999999289, 0.000000000000000000, -7.500000000000460076 ) ) ;
#116 = ADVANCED_FACE ( 'NONE', ( #608 ), #40, .T. ) ;
#117 = DIRECTION ( 'NONE',  ( 0.000000000000000000, 1.000000000000000000, 0.000000000000000000 ) ) ;
#118 = DIRECTION ( 'NONE',  ( -0.000000000000000000, -1.000000000000000000, -0.000000000000000000 ) ) ;
#119 = VECTOR ( 'NONE', #118, 1000.000000000000000 ) ;
#120 = CARTESIAN_POINT ( 'NONE',  ( 0.000000000000000000, 20.00000000000000000, -56.00000000000000000 ) ) ;
#121 = ADVANCED_FACE ( 'NONE', ( #717, #794, #297, #419, #217, #543 ), #155, .T. ) ;
#122 = EDGE_LOOP ( 'NONE', ( #320, #54, #565, #412 ) ) ;
#123 = DIRECTION ( 'NONE',  ( 0.000000000000000000, -0.000000000000000000, 1.000000000000000000 ) ) ;
#124 = EDGE_LOOP ( 'NONE', ( #777, #460, #533, #512 ) ) ;
#125 = ADVANCED_FACE ( 'NONE', ( #486 ), #410, .F. ) ;
#126 = CARTESIAN_POINT ( 'NONE',  ( 0.000000000000000000, 50.00000000000000000, 0.000000000000000000 ) ) ;
#127 = VERTEX_POINT ( 'NONE', #536 ) ;
#128 = EDGE_CURVE ( 'NONE', #69, #73, #783, .T. ) ;
#129 = COLOUR_RGB ( '',0.7921568627450980005, 0.8196078431372548767, 0.9333333333333333481 ) ;
#130 = VECTOR ( 'NONE', #402, 1000.000000000000000 ) ;
#131 =( GEOMETRIC_REPRESENTATION_CONTEXT ( 3 ) GLOBAL_UNCERTAINTY_ASSIGNED_CONTEXT ( ( #365 ) ) GLOBAL_UNIT_ASSIGNED_CONTEXT ( ( #332, #267, #329 ) ) REPRESENTATION_CONTEXT ( 'NONE', 'WORKASPACE' ) );
#132 = EDGE_LOOP ( 'NONE', ( #255, #375 ) ) ;
#133 = ORIENTED_EDGE ( 'NONE', *, *, #786, .F. ) ;
#134 = CARTESIAN_POINT ( 'NONE',  ( -3.072503578181957353E-13, 0.000000000000000000, 44.00000000000000000 ) ) ;
#135 = ORIENTED_EDGE ( 'NONE', *, *, #38, .F. ) ;
#136 = ORIENTED_EDGE ( 'NONE', *, *, #749, .T. ) ;
#137 = DIRECTION ( 'NONE',  ( 0.000000000000000000, 0.000000000000000000, 1.000000000000000000 ) ) ;
#138 = VECTOR ( 'NONE', #141, 1000.000000000000000 ) ;
#139 = EDGE_CURVE ( 'NONE', #568, #348, #61, .T. ) ;
#140 = ORIENTED_EDGE ( 'NONE', *, *, #624, .F. ) ;
#141 = DIRECTION ( 'NONE',  ( -0.000000000000000000, 1.000000000000000000, -0.000000000000000000 ) ) ;
#142 = VECTOR ( 'NONE', #345, 1000.000000000000000 ) ;
#143 = AXIS2_PLACEMENT_3D ( 'NONE', #240, #676, #689 ) ;
#144 = VECTOR ( 'NONE', #727, 1000.000000000000000 ) ;
#145 = FACE_OUTER_BOUND ( 'NONE', #324, .T. ) ;
#146 = DIRECTION ( 'NONE',  ( 0.000000000000000000, 1.000000000000000000, 0.000000000000000000 ) ) ;
#147 = DIRECTION ( 'NONE',  ( -1.000000000000000000, 0.000000000000000000, 0.000000000000000000 ) ) ;
#148 = AXIS2_PLACEMENT_3D ( 'NONE', #790, #665, #735 ) ;
#149 = EDGE_CURVE ( 'NONE', #127, #314, #27, .T. ) ;
#150 = DIRECTION ( 'NONE',  ( -0.000000000000000000, 1.000000000000000000, -0.000000000000000000 ) ) ;
#151 = VERTEX_POINT ( 'NONE', #182 ) ;
#152 = ORIENTED_EDGE ( 'NONE', *, *, #149, .F. ) ;
#153 = LINE ( 'NONE', #466, #130 ) ;
#154 = ADVANCED_FACE ( 'NONE', ( #392 ), #436, .F. ) ;
#155 = PLANE ( 'NONE',  #802 ) ;
#156 = ORIENTED_EDGE ( 'NONE', *, *, #32, .F. ) ;
#157 = ORIENTED_EDGE ( 'NONE', *, *, #624, .T. ) ;
#158 = DIRECTION ( 'NONE',  ( 0.000000000000000000, 0.000000000000000000, 1.000000000000000000 ) ) ;
#159 = FACE_OUTER_BOUND ( 'NONE', #95, .T. ) ;
#160 = VERTEX_POINT ( 'NONE', #115 ) ;
#161 = CARTESIAN_POINT ( 'NONE',  ( 0.000000000000000000, 20.00000000000000000, -44.00000000000000000 ) ) ;
#162 = DIRECTION ( 'NONE',  ( 0.000000000000000000, 1.000000000000000000, 0.000000000000000000 ) ) ;
#163 = CARTESIAN_POINT ( 'NONE',  ( 0.000000000000000000, 50.00000000000000000, 0.000000000000000000 ) ) ;
#164 = EDGE_CURVE ( 'NONE', #495, #204, #369, .T. ) ;
#165 = VECTOR ( 'NONE', #748, 1000.000000000000000 ) ;
#166 = FACE_OUTER_BOUND ( 'NONE', #698, .T. ) ;
#167 = FACE_OUTER_BOUND ( 'NONE', #122, .T. ) ;
#168 = ORIENTED_EDGE ( 'NONE', *, *, #673, .T. ) ;
#169 = AXIS2_PLACEMENT_3D ( 'NONE', #65, #441, #381 ) ;
#170 = DIRECTION ( 'NONE',  ( 0.000000000000000000, 1.000000000000000000, 0.000000000000000000 ) ) ;
#171 = CARTESIAN_POINT ( 'NONE',  ( 44.00000000000000000, 0.000000000000000000, 1.536251789090978676E-13 ) ) ;
#172 = DIRECTION ( 'NONE',  ( -0.000000000000000000, 1.000000000000000000, -0.000000000000000000 ) ) ;
#173 = DIRECTION ( 'NONE',  ( -0.000000000000000000, -1.000000000000000000, -0.000000000000000000 ) ) ;
#174 = DIRECTION ( 'NONE',  ( 0.000000000000000000, 1.000000000000000000, 0.000000000000000000 ) ) ;
#175 = ADVANCED_FACE ( 'NONE', ( #801 ), #577, .F. ) ;
#176 = AXIS2_PLACEMENT_3D ( 'NONE', #108, #787, #232 ) ;
#177 = DIRECTION ( 'NONE',  ( 0.000000000000000000, 1.000000000000000000, 0.000000000000000000 ) ) ;
#178 = APPLICATION_CONTEXT ( 'automotive_design' ) ;
#179 = DIRECTION ( 'NONE',  ( 0.000000000000000000, 1.000000000000000000, 0.000000000000000000 ) ) ;
#180 = DIRECTION ( 'NONE',  ( 1.734723475976807341E-16, 0.000000000000000000, 1.000000000000000000 ) ) ;
#181 = EDGE_CURVE ( 'NONE', #348, #73, #3, .T. ) ;
#182 = CARTESIAN_POINT ( 'NONE',  ( 2.571758278209441661E-15, 12.00000000000000000, 21.00000000000000000 ) ) ;
#183 = ORIENTED_EDGE ( 'NONE', *, *, #139, .F. ) ;
#184 = DIRECTION ( 'NONE',  ( 0.000000000000000000, 0.000000000000000000, 1.000000000000000000 ) ) ;
#185 = PRESENTATION_LAYER_ASSIGNMENT (  '', '', ( #209 ) ) ;
#186 = EDGE_CURVE ( 'NONE', #397, #191, #487, .T. ) ;
#187 = ORIENTED_EDGE ( 'NONE', *, *, #261, .T. ) ;
#188 = DIRECTION ( 'NONE',  ( 0.000000000000000000, 0.000000000000000000, 1.000000000000000000 ) ) ;
#189 = ORIENTED_EDGE ( 'NONE', *, *, #225, .T. ) ;
#190 = EDGE_CURVE ( 'NONE', #637, #568, #515, .T. ) ;
#191 = VERTEX_POINT ( 'NONE', #57 ) ;
#192 = CARTESIAN_POINT ( 'NONE',  ( 0.000000000000000000, 0.000000000000000000, 0.000000000000000000 ) ) ;
#193 = EDGE_LOOP ( 'NONE', ( #623, #569 ) ) ;
#194 = ORIENTED_EDGE ( 'NONE', *, *, #105, .F. ) ;
#195 = DIRECTION ( 'NONE',  ( 1.734723475976807341E-16, 0.000000000000000000, 1.000000000000000000 ) ) ;
#196 = CIRCLE ( 'NONE', #233, 31.00000000000000000 ) ;
#197 = ORIENTED_EDGE ( 'NONE', *, *, #771, .T. ) ;
#198 = ORIENTED_EDGE ( 'NONE', *, *, #274, .F. ) ;
#199 = DIRECTION ( 'NONE',  ( 0.000000000000000000, 0.000000000000000000, 1.000000000000000000 ) ) ;
#200 = EDGE_CURVE ( 'NONE', #127, #586, #458, .T. ) ;
#201 = ORIENTED_EDGE ( 'NONE', *, *, #67, .F. ) ;
#202 = APPLICATION_PROTOCOL_DEFINITION ( 'draft international standard', 'automotive_design', 1998, #178 ) ;
#203 = CARTESIAN_POINT ( 'NONE',  ( 4.000000000000000000, 0.000000000000000000, -16.84271928232701043 ) ) ;
#204 = VERTEX_POINT ( 'NONE', #639 ) ;
#205 = VERTEX_POINT ( 'NONE', #767 ) ;
#206 = DIRECTION ( 'NONE',  ( 0.000000000000000000, 0.000000000000000000, -1.000000000000000000 ) ) ;
#207 = VECTOR ( 'NONE', #76, 1000.000000000000000 ) ;
#208 = DIRECTION ( 'NONE',  ( 0.000000000000000000, 1.000000000000000000, 0.000000000000000000 ) ) ;
#209 = STYLED_ITEM ( 'NONE', ( #359 ), #609 ) ;
#210 = EDGE_LOOP ( 'NONE', ( #562, #71 ) ) ;
#211 = EDGE_CURVE ( 'NONE', #26, #219, #522, .T. ) ;
#212 = DIRECTION ( 'NONE',  ( -0.000000000000000000, 1.000000000000000000, -0.000000000000000000 ) ) ;
#213 = VERTEX_POINT ( 'NONE', #373 ) ;
#214 = ORIENTED_EDGE ( 'NONE', *, *, #420, .T. ) ;
#215 = CIRCLE ( 'NONE', #148, 12.50000000000000000 ) ;
#216 = CYLINDRICAL_SURFACE ( 'NONE', #23, 12.50000000000000000 ) ;
#217 = FACE_BOUND ( 'NONE', #710, .T. ) ;
#218 = ORIENTED_EDGE ( 'NONE', *, *, #211, .T. ) ;
#219 = VERTEX_POINT ( 'NONE', #798 ) ;
#220 = DIRECTION ( 'NONE',  ( -0.000000000000000000, 1.000000000000000000, -0.000000000000000000 ) ) ;
#221 = CONICAL_SURFACE ( 'NONE', #615, 18.99999999999998934, 0.7853981633974473908 ) ;
#222 = CARTESIAN_POINT ( 'NONE',  ( -3.999999999999999112, 0.000000000000000000, -11.84271928232701221 ) ) ;
#223 = AXIS2_PLACEMENT_3D ( 'NONE', #611, #745, #432 ) ;
#224 = CARTESIAN_POINT ( 'NONE',  ( 9.184850993605147944E-16, 20.00000000000000000, -51.50000000000000000 ) ) ;
#225 = EDGE_CURVE ( 'NONE', #275, #286, #114, .T. ) ;
#226 = DIRECTION ( 'NONE',  ( 0.000000000000000000, -1.000000000000000000, 0.000000000000000000 ) ) ;
#227 = DIRECTION ( 'NONE',  ( 0.000000000000000000, 0.000000000000000000, 1.000000000000000000 ) ) ;
#228 = EDGE_CURVE ( 'NONE', #587, #663, #551, .T. ) ;
#229 = CYLINDRICAL_SURFACE ( 'NONE', #363, 7.500000000000000000 ) ;
#230 = CIRCLE ( 'NONE', #52, 56.00000000000000000 ) ;
#231 = CARTESIAN_POINT ( 'NONE',  ( 0.000000000000000000, 12.00000000000000000, 0.000000000000000000 ) ) ;
#232 = DIRECTION ( 'NONE',  ( 0.000000000000000000, 0.000000000000000000, 1.000000000000000000 ) ) ;
#233 = AXIS2_PLACEMENT_3D ( 'NONE', #416, #307, #675 ) ;
#234 = EDGE_CURVE ( 'NONE', #326, #18, #230, .T. ) ;
#235 = VECTOR ( 'NONE', #75, 1000.000000000000000 ) ;
#236 = DIRECTION ( 'NONE',  ( 0.000000000000000000, 1.000000000000000000, 0.000000000000000000 ) ) ;
#237 = DIRECTION ( 'NONE',  ( 0.000000000000000000, 1.000000000000000000, 0.000000000000000000 ) ) ;
#238 = DIRECTION ( 'NONE',  ( 0.000000000000000000, 0.000000000000000000, 1.000000000000000000 ) ) ;
#239 = CARTESIAN_POINT ( 'NONE',  ( 0.000000000000000000, 20.00000000000000000, 0.000000000000000000 ) ) ;
#240 = CARTESIAN_POINT ( 'NONE',  ( 0.000000000000000000, 12.00000000000000000, 0.000000000000000000 ) ) ;
#241 = DIRECTION ( 'NONE',  ( -0.000000000000000000, 1.000000000000000000, -0.000000000000000000 ) ) ;
#242 = ORIENTED_EDGE ( 'NONE', *, *, #529, .F. ) ;
#243 = AXIS2_PLACEMENT_3D ( 'NONE', #761, #454, #785 ) ;
#244 = VERTEX_POINT ( 'NONE', #635 ) ;
#245 = FACE_BOUND ( 'NONE', #14, .T. ) ;
#246 = DIRECTION ( 'NONE',  ( -0.000000000000000000, 1.000000000000000000, -0.000000000000000000 ) ) ;
#247 = DIRECTION ( 'NONE',  ( -1.000000000000000000, 0.000000000000000000, 0.000000000000000000 ) ) ;
#248 = AXIS2_PLACEMENT_3D ( 'NONE', #589, #30, #282 ) ;
#249 = AXIS2_PLACEMENT_3D ( 'NONE', #51, #492, #685 ) ;
#250 = ORIENTED_EDGE ( 'NONE', *, *, #504, .T. ) ;
#251 = LINE ( 'NONE', #560, #386 ) ;
#252 = ADVANCED_FACE ( 'NONE', ( #433 ), #72, .F. ) ;
#253 = EDGE_LOOP ( 'NONE', ( #271, #768 ) ) ;
#254 = CARTESIAN_POINT ( 'NONE',  ( 2.571758278209441661E-15, 50.00000000000000000, 21.00000000000000000 ) ) ;
#255 = ORIENTED_EDGE ( 'NONE', *, *, #791, .T. ) ;
#256 = EDGE_LOOP ( 'NONE', ( #133, #281, #518, #477 ) ) ;
#257 = CARTESIAN_POINT ( 'NONE',  ( 44.00000000000000000, 0.000000000000000000, -7.499999999999846345 ) ) ;
#258 = CIRCLE ( 'NONE', #12, 18.99999999999998934 ) ;
#259 = ORIENTED_EDGE ( 'NONE', *, *, #234, .F. ) ;
#260 = VERTEX_POINT ( 'NONE', #677 ) ;
#261 = EDGE_CURVE ( 'NONE', #326, #275, #263, .T. ) ;
#262 = DIRECTION ( 'NONE',  ( 0.000000000000000000, 0.000000000000000000, 1.000000000000000000 ) ) ;
#263 = LINE ( 'NONE', #120, #612 ) ;
#264 = AXIS2_PLACEMENT_3D ( 'NONE', #351, #43, #531 ) ;
#265 = ORIENTED_EDGE ( 'NONE', *, *, #181, .F. ) ;
#266 = EDGE_LOOP ( 'NONE', ( #686, #214 ) ) ;
#267 =( NAMED_UNIT ( * ) PLANE_ANGLE_UNIT ( ) SI_UNIT ( $, .RADIAN. ) );
#268 = ADVANCED_FACE ( 'NONE', ( #573, #16 ), #513, .T. ) ;
#269 = CARTESIAN_POINT ( 'NONE',  ( 0.000000000000000000, 50.00000000000000000, -21.00000000000000000 ) ) ;
#270 = PLANE ( 'NONE',  #81 ) ;
#271 = ORIENTED_EDGE ( 'NONE', *, *, #437, .F. ) ;
#272 = FACE_OUTER_BOUND ( 'NONE', #256, .T. ) ;
#273 = CARTESIAN_POINT ( 'NONE',  ( 0.000000000000000000, 20.00000000000000000, -36.50000000000000000 ) ) ;
#274 = EDGE_CURVE ( 'NONE', #11, #380, #258, .T. ) ;
#275 = VERTEX_POINT ( 'NONE', #776 ) ;
#276 = ORIENTED_EDGE ( 'NONE', *, *, #459, .T. ) ;
#277 = DIRECTION ( 'NONE',  ( -0.000000000000000000, 1.000000000000000000, -0.000000000000000000 ) ) ;
#278 = CIRCLE ( 'NONE', #720, 7.500000000000000000 ) ;
#279 = VECTOR ( 'NONE', #247, 1000.000000000000000 ) ;
#280 = AXIS2_PLACEMENT_3D ( 'NONE', #509, #399, #262 ) ;
#281 = ORIENTED_EDGE ( 'NONE', *, *, #409, .T. ) ;
#282 = DIRECTION ( 'NONE',  ( 0.000000000000000000, 0.000000000000000000, 1.000000000000000000 ) ) ;
#283 = CIRCLE ( 'NONE', #596, 31.00000000000000000 ) ;
#284 = CARTESIAN_POINT ( 'NONE',  ( -43.99999999999999289, 0.000000000000000000, -4.608755367272936534E-13 ) ) ;
#285 = CARTESIAN_POINT ( 'NONE',  ( 44.00000000000000000, 0.000000000000000000, 7.500000000000153655 ) ) ;
#286 = VERTEX_POINT ( 'NONE', #407 ) ;
#287 = CONICAL_SURFACE ( 'NONE', #739, 18.99999999999998934, 0.7853981633974473908 ) ;
#288 = CARTESIAN_POINT ( 'NONE',  ( 4.000000000000000000, 0.000000000000000000, -16.84271928232701043 ) ) ;
#289 = DIRECTION ( 'NONE',  ( 0.000000000000000000, 0.000000000000000000, 1.000000000000000000 ) ) ;
#290 = ORIENTED_EDGE ( 'NONE', *, *, #347, .T. ) ;
#291 = ADVANCED_FACE ( 'NONE', ( #350 ), #597, .F. ) ;
#292 = CARTESIAN_POINT ( 'NONE',  ( 0.000000000000000000, 50.00000000000000000, 0.000000000000000000 ) ) ;
#293 = UNCERTAINTY_MEASURE_WITH_UNIT (LENGTH_MEASURE( 1.000000000000000082E-05 ), #542, 'distance_accuracy_value', 'NONE');
#294 = DIRECTION ( 'NONE',  ( 0.000000000000000000, 1.000000000000000000, 0.000000000000000000 ) ) ;
#295 = AXIS2_PLACEMENT_3D ( 'NONE', #713, #463, #762 ) ;
#296 = DIRECTION ( 'NONE',  ( -1.000000000000000000, 0.000000000000000000, -1.734723475976807341E-16 ) ) ;
#297 = FACE_BOUND ( 'NONE', #452, .T. ) ;
#298 = CARTESIAN_POINT ( 'NONE',  ( 44.00000000000000000, 0.000000000000000000, -7.499999999999846345 ) ) ;
#299 = DIRECTION ( 'NONE',  ( 0.000000000000000000, -1.000000000000000000, 0.000000000000000000 ) ) ;
#300 = ADVANCED_FACE ( 'NONE', ( #272 ), #39, .F. ) ;
#301 = PLANE ( 'NONE',  #524 ) ;
#302 = LINE ( 'NONE', #549, #355 ) ;
#303 = CARTESIAN_POINT ( 'NONE',  ( -4.000000000000000000, 50.00000000000000000, -16.84271928232701043 ) ) ;
#304 = MECHANICAL_DESIGN_GEOMETRIC_PRESENTATION_REPRESENTATION (  '', ( #209 ), #669 ) ;
#305 = CIRCLE ( 'NONE', #773, 12.50000000000000000 ) ;
#306 = CIRCLE ( 'NONE', #280, 7.500000000000000000 ) ;
#307 = DIRECTION ( 'NONE',  ( 0.000000000000000000, 1.000000000000000000, 0.000000000000000000 ) ) ;
#308 = CARTESIAN_POINT ( 'NONE',  ( 0.000000000000000000, 20.00000000000000000, 31.00000000000000000 ) ) ;
#309 = DIRECTION ( 'NONE',  ( -0.000000000000000000, 1.000000000000000000, -0.000000000000000000 ) ) ;
#310 = ORIENTED_EDGE ( 'NONE', *, *, #149, .T. ) ;
#311 = DIRECTION ( 'NONE',  ( 0.000000000000000000, -1.000000000000000000, 0.000000000000000000 ) ) ;
#312 = CARTESIAN_POINT ( 'NONE',  ( 4.000000000000003553, 0.000000000000000000, -11.84271928232701043 ) ) ;
#313 = DIRECTION ( 'NONE',  ( 0.000000000000000000, 0.000000000000000000, 1.000000000000000000 ) ) ;
#314 = VERTEX_POINT ( 'NONE', #472 ) ;
#315 = DIRECTION ( 'NONE',  ( 0.000000000000000000, 1.000000000000000000, 0.000000000000000000 ) ) ;
#316 = CIRCLE ( 'NONE', #143, 31.00000000000000000 ) ;
#317 = ORIENTED_EDGE ( 'NONE', *, *, #791, .F. ) ;
#318 = DIRECTION ( 'NONE',  ( 0.000000000000000000, 1.000000000000000000, 0.000000000000000000 ) ) ;
#319 = EDGE_CURVE ( 'NONE', #10, #760, #692, .T. ) ;
#320 = ORIENTED_EDGE ( 'NONE', *, *, #520, .T. ) ;
#321 = ORIENTED_EDGE ( 'NONE', *, *, #58, .F. ) ;
#322 = DIRECTION ( 'NONE',  ( 0.000000000000000000, 0.000000000000000000, 1.000000000000000000 ) ) ;
#323 = EDGE_CURVE ( 'NONE', #406, #213, #153, .T. ) ;
#324 = EDGE_LOOP ( 'NONE', ( #290, #183, #764, #197 ) ) ;
#325 = CARTESIAN_POINT ( 'NONE',  ( -4.000000000000000000, 0.000000000000000000, -16.84271928232701043 ) ) ;
#326 = VERTEX_POINT ( 'NONE', #649 ) ;
#327 = CLOSED_SHELL ( 'NONE', ( #77, #360, #48, #125, #387, #732, #175, #300, #465, #781, #121, #662, #154, #291, #607, #44, #553, #576, #116, #268, #9, #567, #600, #252, #333 ) ) ;
#328 = ORIENTED_EDGE ( 'NONE', *, *, #164, .T. ) ;
#329 =( NAMED_UNIT ( * ) SI_UNIT ( $, .STERADIAN. ) SOLID_ANGLE_UNIT ( ) );
#330 = CARTESIAN_POINT ( 'NONE',  ( -43.99999999999999289, 0.000000000000000000, -4.608755367272936534E-13 ) ) ;
#331 = DIRECTION ( 'NONE',  ( 0.000000000000000000, 1.000000000000000000, 0.000000000000000000 ) ) ;
#332 =( LENGTH_UNIT ( ) NAMED_UNIT ( * ) SI_UNIT ( .MILLI., .METRE. ) );
#333 = ADVANCED_FACE ( 'NONE', ( #400 ), #221, .T. ) ;
#334 = FACE_OUTER_BOUND ( 'NONE', #500, .T. ) ;
#335 = CARTESIAN_POINT ( 'NONE',  ( 0.000000000000000000, 12.00000000000000000, 31.00000000000000000 ) ) ;
#336 = ORIENTED_EDGE ( 'NONE', *, *, #749, .F. ) ;
#337 = ORIENTED_EDGE ( 'NONE', *, *, #722, .F. ) ;
#338 = CYLINDRICAL_SURFACE ( 'NONE', #422, 7.500000000000000000 ) ;
#339 = CARTESIAN_POINT ( 'NONE',  ( 44.00000000000000000, 20.00000000000000000, -7.499999999999846345 ) ) ;
#340 = DIRECTION ( 'NONE',  ( 0.000000000000000000, 0.000000000000000000, 1.000000000000000000 ) ) ;
#341 = CIRCLE ( 'NONE', #169, 7.500000000000000000 ) ;
#342 = DIRECTION ( 'NONE',  ( -0.000000000000000000, -1.000000000000000000, -0.000000000000000000 ) ) ;
#343 = VERTEX_POINT ( 'NONE', #224 ) ;
#344 = ORIENTED_EDGE ( 'NONE', *, *, #447, .F. ) ;
#345 = DIRECTION ( 'NONE',  ( -1.734723475976807341E-16, 0.000000000000000000, 1.000000000000000000 ) ) ;
#346 = CYLINDRICAL_SURFACE ( 'NONE', #517, 21.00000000000000000 ) ;
#347 = EDGE_CURVE ( 'NONE', #406, #348, #651, .T. ) ;
#348 = VERTEX_POINT ( 'NONE', #78 ) ;
#349 = VECTOR ( 'NONE', #726, 1000.000000000000000 ) ;
#350 = FACE_OUTER_BOUND ( 'NONE', #124, .T. ) ;
#351 = CARTESIAN_POINT ( 'NONE',  ( 0.000000000000000000, 20.00000000000000000, -44.00000000000000000 ) ) ;
#352 = ORIENTED_EDGE ( 'NONE', *, *, #6, .F. ) ;
#353 = CARTESIAN_POINT ( 'NONE',  ( 0.000000000000000000, 50.00000000000000000, 0.000000000000000000 ) ) ;
#354 = DIRECTION ( 'NONE',  ( -0.000000000000000000, 1.000000000000000000, -0.000000000000000000 ) ) ;
#355 = VECTOR ( 'NONE', #180, 1000.000000000000000 ) ;
#356 = DIRECTION ( 'NONE',  ( 0.000000000000000000, 0.000000000000000000, -1.000000000000000000 ) ) ;
#357 = CIRCLE ( 'NONE', #775, 56.00000000000000000 ) ;
#358 = CYLINDRICAL_SURFACE ( 'NONE', #642, 31.00000000000000000 ) ;
#359 = PRESENTATION_STYLE_ASSIGNMENT (( #107 ) ) ;
#360 = ADVANCED_FACE ( 'NONE', ( #334 ), #216, .F. ) ;
#361 = CARTESIAN_POINT ( 'NONE',  ( 2.326828918379969787E-15, 50.00000000000000000, 18.99999999999998934 ) ) ;
#362 = CARTESIAN_POINT ( 'NONE',  ( 4.000000000000000000, 0.000000000000000000, -16.84271928232701043 ) ) ;
#363 = AXIS2_PLACEMENT_3D ( 'NONE', #478, #172, #415 ) ;
#364 = FACE_BOUND ( 'NONE', #470, .T. ) ;
#365 = UNCERTAINTY_MEASURE_WITH_UNIT (LENGTH_MEASURE( 1.000000000000000082E-05 ), #332, 'distance_accuracy_value', 'NONE');
#366 = DIRECTION ( 'NONE',  ( 0.000000000000000000, 0.000000000000000000, 1.000000000000000000 ) ) ;
#367 = CARTESIAN_POINT ( 'NONE',  ( 0.000000000000000000, 12.00000000000000000, 0.000000000000000000 ) ) ;
#368 = DIRECTION ( 'NONE',  ( 0.000000000000000000, 0.000000000000000000, 1.000000000000000000 ) ) ;
#369 = LINE ( 'NONE', #269, #759 ) ;
#370 = LINE ( 'NONE', #430, #734 ) ;
#371 = APPLICATION_CONTEXT ( 'automotive_design' ) ;
#372 = DIRECTION ( 'NONE',  ( 0.000000000000000000, 0.000000000000000000, 1.000000000000000000 ) ) ;
#373 = CARTESIAN_POINT ( 'NONE',  ( 4.000000000000003553, 50.00000000000000000, -11.84271928232701043 ) ) ;
#374 = EDGE_CURVE ( 'NONE', #788, #26, #377, .T. ) ;
#375 = ORIENTED_EDGE ( 'NONE', *, *, #374, .T. ) ;
#376 = CYLINDRICAL_SURFACE ( 'NONE', #602, 7.500000000000000000 ) ;
#377 = CIRCLE ( 'NONE', #248, 7.500000000000000000 ) ;
#378 = EDGE_LOOP ( 'NONE', ( #599, #475 ) ) ;
#379 = EDGE_CURVE ( 'NONE', #191, #343, #530, .T. ) ;
#380 = VERTEX_POINT ( 'NONE', #778 ) ;
#381 = DIRECTION ( 'NONE',  ( 0.000000000000000000, 0.000000000000000000, 1.000000000000000000 ) ) ;
#382 = CIRCLE ( 'NONE', #408, 18.99999999999998934 ) ;
#383 = EDGE_LOOP ( 'NONE', ( #715, #604, #445, #337, #265 ) ) ;
#384 = AXIS2_PLACEMENT_3D ( 'NONE', #658, #96, #468 ) ;
#385 = DIRECTION ( 'NONE',  ( 1.000000000000000000, 0.000000000000000000, 0.000000000000000000 ) ) ;
#386 = VECTOR ( 'NONE', #1, 1000.000000000000000 ) ;
#387 = ADVANCED_FACE ( 'NONE', ( #22 ), #338, .F. ) ;
#388 = CARTESIAN_POINT ( 'NONE',  ( 0.000000000000000000, 0.000000000000000000, -44.00000000000000000 ) ) ;
#389 = CIRCLE ( 'NONE', #36, 21.00000000000000000 ) ;
#390 = ORIENTED_EDGE ( 'NONE', *, *, #88, .T. ) ;
#391 = ORIENTED_EDGE ( 'NONE', *, *, #459, .F. ) ;
#392 = FACE_OUTER_BOUND ( 'NONE', #440, .T. ) ;
#393 = ORIENTED_EDGE ( 'NONE', *, *, #67, .T. ) ;
#394 = CARTESIAN_POINT ( 'NONE',  ( -3.072503578181957353E-13, 0.000000000000000000, 44.00000000000000000 ) ) ;
#395 = CIRCLE ( 'NONE', #682, 31.00000000000000000 ) ;
#396 = EDGE_LOOP ( 'NONE', ( #557, #580 ) ) ;
#397 = VERTEX_POINT ( 'NONE', #655 ) ;
#398 = EDGE_CURVE ( 'NONE', #637, #763, #92, .T. ) ;
#399 = DIRECTION ( 'NONE',  ( 0.000000000000000000, 1.000000000000000000, 0.000000000000000000 ) ) ;
#400 = FACE_OUTER_BOUND ( 'NONE', #724, .T. ) ;
#401 = CARTESIAN_POINT ( 'NONE',  ( -43.99999999999999289, 20.00000000000000000, -7.500000000000460076 ) ) ;
#402 = DIRECTION ( 'NONE',  ( -1.734723475976807341E-16, 0.000000000000000000, 1.000000000000000000 ) ) ;
#403 = DIRECTION ( 'NONE',  ( 0.000000000000000000, 0.000000000000000000, 1.000000000000000000 ) ) ;
#404 = EDGE_LOOP ( 'NONE', ( #697, #678 ) ) ;
#405 = ORIENTED_EDGE ( 'NONE', *, *, #190, .T. ) ;
#406 = VERTEX_POINT ( 'NONE', #584 ) ;
#407 = CARTESIAN_POINT ( 'NONE',  ( 6.858022075225178552E-15, 0.000000000000000000, 56.00000000000000000 ) ) ;
#408 = AXIS2_PLACEMENT_3D ( 'NONE', #740, #179, #112 ) ;
#409 = EDGE_CURVE ( 'NONE', #160, #10, #594, .T. ) ;
#410 = CYLINDRICAL_SURFACE ( 'NONE', #62, 31.00000000000000000 ) ;
#411 = ORIENTED_EDGE ( 'NONE', *, *, #82, .F. ) ;
#412 = ORIENTED_EDGE ( 'NONE', *, *, #164, .F. ) ;
#413 = CARTESIAN_POINT ( 'NONE',  ( 0.000000000000000000, 0.000000000000000000, -44.00000000000000000 ) ) ;
#414 = SURFACE_SIDE_STYLE ('',( #793 ) ) ;
#415 = DIRECTION ( 'NONE',  ( 0.000000000000000000, 0.000000000000000000, 1.000000000000000000 ) ) ;
#416 = CARTESIAN_POINT ( 'NONE',  ( 0.000000000000000000, 20.00000000000000000, 0.000000000000000000 ) ) ;
#417 = FILL_AREA_STYLE_COLOUR ( '', #129 ) ;
#418 = AXIS2_PLACEMENT_3D ( 'NONE', #451, #613, #53 ) ;
#419 = FACE_BOUND ( 'NONE', #85, .T. ) ;
#420 = EDGE_CURVE ( 'NONE', #244, #587, #283, .T. ) ;
#421 = CARTESIAN_POINT ( 'NONE',  ( -43.99999999999999289, 20.00000000000000000, -4.608755367272936534E-13 ) ) ;
#422 = AXIS2_PLACEMENT_3D ( 'NONE', #394, #220, #716 ) ;
#423 = CIRCLE ( 'NONE', #550, 21.00000000000000000 ) ;
#424 = CARTESIAN_POINT ( 'NONE',  ( -3.999999999999999112, 50.00000000000000000, -11.84271928232701221 ) ) ;
#425 = AXIS2_PLACEMENT_3D ( 'NONE', #192, #765, #385 ) ;
#426 = EDGE_CURVE ( 'NONE', #74, #213, #305, .T. ) ;
#427 = DIRECTION ( 'NONE',  ( 0.000000000000000000, 0.000000000000000000, 1.000000000000000000 ) ) ;
#428 = DIRECTION ( 'NONE',  ( -0.000000000000000000, 1.000000000000000000, -0.000000000000000000 ) ) ;
#429 = CARTESIAN_POINT ( 'NONE',  ( 0.000000000000000000, 12.00000000000000000, 0.000000000000000000 ) ) ;
#430 = CARTESIAN_POINT ( 'NONE',  ( 0.000000000000000000, 0.000000000000000000, -36.50000000000000000 ) ) ;
#431 = AXIS2_PLACEMENT_3D ( 'NONE', #645, #331, #579 ) ;
#432 = DIRECTION ( 'NONE',  ( 0.000000000000000000, 0.000000000000000000, 1.000000000000000000 ) ) ;
#433 = FACE_OUTER_BOUND ( 'NONE', #705, .T. ) ;
#434 = CARTESIAN_POINT ( 'NONE',  ( 2.571758278209441661E-15, 47.99999999999998579, 21.00000000000000000 ) ) ;
#435 = PLANE ( 'NONE',  #630 ) ;
#436 = CYLINDRICAL_SURFACE ( 'NONE', #68, 7.500000000000000000 ) ;
#437 = EDGE_CURVE ( 'NONE', #663, #260, #196, .T. ) ;
#438 = EDGE_LOOP ( 'NONE', ( #352, #719, #157, #731 ) ) ;
#439 = AXIS2_PLACEMENT_3D ( 'NONE', #126, #318, #368 ) ;
#440 = EDGE_LOOP ( 'NONE', ( #750, #13, #571, #276 ) ) ;
#441 = DIRECTION ( 'NONE',  ( 0.000000000000000000, 1.000000000000000000, 0.000000000000000000 ) ) ;
#442 = ORIENTED_EDGE ( 'NONE', *, *, #482, .F. ) ;
#443 = ORIENTED_EDGE ( 'NONE', *, *, #128, .T. ) ;
#444 = CARTESIAN_POINT ( 'NONE',  ( 4.000000000000000000, 0.000000000000000000, -16.84271928232701043 ) ) ;
#445 = ORIENTED_EDGE ( 'NONE', *, *, #426, .F. ) ;
#446 = ORIENTED_EDGE ( 'NONE', *, *, #558, .T. ) ;
#447 = EDGE_CURVE ( 'NONE', #380, #11, #382, .T. ) ;
#448 = AXIS2_PLACEMENT_3D ( 'NONE', #644, #770, #462 ) ;
#449 = ORIENTED_EDGE ( 'NONE', *, *, #563, .F. ) ;
#450 = CIRCLE ( 'NONE', #56, 7.500000000000000000 ) ;
#451 = CARTESIAN_POINT ( 'NONE',  ( 0.000000000000000000, 0.000000000000000000, 0.000000000000000000 ) ) ;
#452 = EDGE_LOOP ( 'NONE', ( #442, #336 ) ) ;
#453 = EDGE_LOOP ( 'NONE', ( #94, #24, #508, #505 ) ) ;
#454 = DIRECTION ( 'NONE',  ( 0.000000000000000000, 1.000000000000000000, 0.000000000000000000 ) ) ;
#455 = ORIENTED_EDGE ( 'NONE', *, *, #558, .F. ) ;
#456 = VERTEX_POINT ( 'NONE', #434 ) ;
#457 = PRODUCT_CONTEXT ( 'NONE', #178, 'mechanical' ) ;
#458 = LINE ( 'NONE', #490, #590 ) ;
#459 = EDGE_CURVE ( 'NONE', #760, #10, #450, .T. ) ;
#460 = ORIENTED_EDGE ( 'NONE', *, *, #186, .F. ) ;
#461 = VECTOR ( 'NONE', #59, 1000.000000000000000 ) ;
#462 = DIRECTION ( 'NONE',  ( 0.000000000000000000, 0.000000000000000000, 1.000000000000000000 ) ) ;
#463 = DIRECTION ( 'NONE',  ( -0.000000000000000000, 1.000000000000000000, -0.000000000000000000 ) ) ;
#464 = DIRECTION ( 'NONE',  ( -0.000000000000000000, 0.000000000000000000, -1.000000000000000000 ) ) ;
#465 = ADVANCED_FACE ( 'NONE', ( #725 ), #680, .T. ) ;
#466 = CARTESIAN_POINT ( 'NONE',  ( 4.000000000000000000, 50.00000000000000000, -16.84271928232701043 ) ) ;
#467 = ORIENTED_EDGE ( 'NONE', *, *, #105, .T. ) ;
#468 = DIRECTION ( 'NONE',  ( 0.000000000000000000, 0.000000000000000000, 1.000000000000000000 ) ) ;
#469 = CARTESIAN_POINT ( 'NONE',  ( -3.063318727188351838E-13, 0.000000000000000000, 36.50000000000000000 ) ) ;
#470 = EDGE_LOOP ( 'NONE', ( #4, #405, #657, #744, #393 ) ) ;
#471 = ORIENTED_EDGE ( 'NONE', *, *, #200, .F. ) ;
#472 = CARTESIAN_POINT ( 'NONE',  ( -3.063318727188351838E-13, 0.000000000000000000, 36.50000000000000000 ) ) ;
#473 = CIRCLE ( 'NONE', #264, 7.500000000000000000 ) ;
#474 = DIRECTION ( 'NONE',  ( -0.000000000000000000, 1.000000000000000000, -0.000000000000000000 ) ) ;
#475 = ORIENTED_EDGE ( 'NONE', *, *, #6, .T. ) ;
#476 = CARTESIAN_POINT ( 'NONE',  ( 0.000000000000000000, 50.00000000000000000, -18.99999999999998934 ) ) ;
#477 = ORIENTED_EDGE ( 'NONE', *, *, #636, .F. ) ;
#478 = CARTESIAN_POINT ( 'NONE',  ( -3.072503578181957353E-13, 0.000000000000000000, 44.00000000000000000 ) ) ;
#479 = EDGE_CURVE ( 'NONE', #788, #17, #664, .T. ) ;
#480 = DIRECTION ( 'NONE',  ( -0.000000000000000000, 1.000000000000000000, -0.000000000000000000 ) ) ;
#481 = DIRECTION ( 'NONE',  ( 0.000000000000000000, 0.000000000000000000, -1.000000000000000000 ) ) ;
#482 = EDGE_CURVE ( 'NONE', #219, #17, #278, .T. ) ;
#483 = ORIENTED_EDGE ( 'NONE', *, *, #88, .F. ) ;
#484 = DIRECTION ( 'NONE',  ( 0.000000000000000000, 1.000000000000000000, 0.000000000000000000 ) ) ;
#485 = AXIS2_PLACEMENT_3D ( 'NONE', #362, #296, #541 ) ;
#486 = FACE_OUTER_BOUND ( 'NONE', #453, .T. ) ;
#487 = CIRCLE ( 'NONE', #631, 7.500000000000000000 ) ;
#488 = DIRECTION ( 'NONE',  ( 0.000000000000000000, 0.000000000000000000, 1.000000000000000000 ) ) ;
#489 = FACE_BOUND ( 'NONE', #132, .T. ) ;
#490 = CARTESIAN_POINT ( 'NONE',  ( -3.072503578181957353E-13, 0.000000000000000000, 51.50000000000000000 ) ) ;
#491 = CARTESIAN_POINT ( 'NONE',  ( 3.796405077356795115E-15, 12.00000000000000000, -31.00000000000000000 ) ) ;
#492 = DIRECTION ( 'NONE',  ( 0.000000000000000000, 1.000000000000000000, 0.000000000000000000 ) ) ;
#493 = EDGE_CURVE ( 'NONE', #593, #343, #797, .T. ) ;
#494 = DIRECTION ( 'NONE',  ( 1.734723475976807341E-16, 0.000000000000000000, 1.000000000000000000 ) ) ;
#495 = VERTEX_POINT ( 'NONE', #47 ) ;
#496 = ORIENTED_EDGE ( 'NONE', *, *, #687, .F. ) ;
#497 = FACE_BOUND ( 'NONE', #396, .T. ) ;
#498 = CARTESIAN_POINT ( 'NONE',  ( -4.000000000000000000, 0.000000000000000000, -16.84271928232701043 ) ) ;
#499 = CIRCLE ( 'NONE', #618, 7.500000000000000000 ) ;
#500 = EDGE_LOOP ( 'NONE', ( #201, #714, #769, #194 ) ) ;
#501 = AXIS2_PLACEMENT_3D ( 'NONE', #667, #173, #736 ) ;
#502 = EDGE_LOOP ( 'NONE', ( #751, #135, #443, #523 ) ) ;
#503 = FACE_OUTER_BOUND ( 'NONE', #718, .T. ) ;
#504 = EDGE_CURVE ( 'NONE', #380, #495, #545, .T. ) ;
#505 = ORIENTED_EDGE ( 'NONE', *, *, #228, .F. ) ;
#506 = VECTOR ( 'NONE', #99, 999.9999999999998863 ) ;
#507 = ORIENTED_EDGE ( 'NONE', *, *, #482, .T. ) ;
#508 = ORIENTED_EDGE ( 'NONE', *, *, #585, .T. ) ;
#509 = CARTESIAN_POINT ( 'NONE',  ( 44.00000000000000000, 0.000000000000000000, 1.536251789090978676E-13 ) ) ;
#510 = ORIENTED_EDGE ( 'NONE', *, *, #771, .F. ) ;
#511 = CIRCLE ( 'NONE', #5, 21.00000000000000000 ) ;
#512 = ORIENTED_EDGE ( 'NONE', *, *, #493, .T. ) ;
#513 = PLANE ( 'NONE',  #243 ) ;
#514 = ORIENTED_EDGE ( 'NONE', *, *, #181, .T. ) ;
#515 = LINE ( 'NONE', #203, #279 ) ;
#516 = EDGE_CURVE ( 'NONE', #397, #593, #370, .T. ) ;
#517 = AXIS2_PLACEMENT_3D ( 'NONE', #353, #342, #481 ) ;
#518 = ORIENTED_EDGE ( 'NONE', *, *, #319, .T. ) ;
#519 = CARTESIAN_POINT ( 'NONE',  ( 0.000000000000000000, 12.00000000000000000, 0.000000000000000000 ) ) ;
#520 = EDGE_CURVE ( 'NONE', #495, #456, #511, .T. ) ;
#521 = CYLINDRICAL_SURFACE ( 'NONE', #295, 12.50000000000000000 ) ;
#522 = LINE ( 'NONE', #556, #165 ) ;
#523 = ORIENTED_EDGE ( 'NONE', *, *, #722, .T. ) ;
#524 = AXIS2_PLACEMENT_3D ( 'NONE', #548, #796, #616 ) ;
#525 = CARTESIAN_POINT ( 'NONE',  ( 0.000000000000000000, 50.00000000000000000, 0.000000000000000000 ) ) ;
#526 = VECTOR ( 'NONE', #195, 1000.000000000000000 ) ;
#527 = CIRCLE ( 'NONE', #694, 7.500000000000000000 ) ;
#528 = ORIENTED_EDGE ( 'NONE', *, *, #629, .T. ) ;
#529 = EDGE_CURVE ( 'NONE', #244, #260, #792, .T. ) ;
#530 = LINE ( 'NONE', #83, #746 ) ;
#531 = DIRECTION ( 'NONE',  ( 0.000000000000000000, 0.000000000000000000, 1.000000000000000000 ) ) ;
#532 = LINE ( 'NONE', #361, #506 ) ;
#533 = ORIENTED_EDGE ( 'NONE', *, *, #516, .T. ) ;
#534 = ORIENTED_EDGE ( 'NONE', *, *, #753, .F. ) ;
#535 = CARTESIAN_POINT ( 'NONE',  ( -43.99999999999999289, 0.000000000000000000, -7.500000000000460076 ) ) ;
#536 = CARTESIAN_POINT ( 'NONE',  ( -3.072503578181957353E-13, 0.000000000000000000, 51.50000000000000000 ) ) ;
#537 = ORIENTED_EDGE ( 'NONE', *, *, #274, .T. ) ;
#538 = DIRECTION ( 'NONE',  ( 0.000000000000000000, 0.000000000000000000, -1.000000000000000000 ) ) ;
#539 = CIRCLE ( 'NONE', #249, 7.500000000000000000 ) ;
#540 = CARTESIAN_POINT ( 'NONE',  ( 6.858022075225178552E-15, 20.00000000000000000, 56.00000000000000000 ) ) ;
#541 = DIRECTION ( 'NONE',  ( -1.734723475976807341E-16, 0.000000000000000000, 1.000000000000000000 ) ) ;
#542 =( LENGTH_UNIT ( ) NAMED_UNIT ( * ) SI_UNIT ( .MILLI., .METRE. ) );
#543 = FACE_OUTER_BOUND ( 'NONE', #404, .T. ) ;
#544 = CIRCLE ( 'NONE', #176, 12.50000000000000000 ) ;
#545 = LINE ( 'NONE', #476, #706 ) ;
#546 = AXIS2_PLACEMENT_3D ( 'NONE', #325, #683, #494 ) ;
#547 = DIRECTION ( 'NONE',  ( 0.000000000000000000, -0.000000000000000000, 1.000000000000000000 ) ) ;
#548 = CARTESIAN_POINT ( 'NONE',  ( 0.000000000000000000, 12.00000000000000000, 0.000000000000000000 ) ) ;
#549 = CARTESIAN_POINT ( 'NONE',  ( -4.000000000000000000, 0.000000000000000000, -16.84271928232701043 ) ) ;
#550 = AXIS2_PLACEMENT_3D ( 'NONE', #231, #484, #671 ) ;
#551 = LINE ( 'NONE', #738, #728 ) ;
#552 = AXIS2_PLACEMENT_3D ( 'NONE', #388, #19, #238 ) ;
#553 = ADVANCED_FACE ( 'NONE', ( #610 ), #358, .F. ) ;
#554 = CARTESIAN_POINT ( 'NONE',  ( -4.000000000000000000, 0.000000000000000000, -16.84271928232701043 ) ) ;
#555 = DIRECTION ( 'NONE',  ( 0.000000000000000000, 1.000000000000000000, 0.000000000000000000 ) ) ;
#556 = CARTESIAN_POINT ( 'NONE',  ( 44.00000000000000000, 0.000000000000000000, 7.500000000000153655 ) ) ;
#557 = ORIENTED_EDGE ( 'NONE', *, *, #614, .T. ) ;
#558 = EDGE_CURVE ( 'NONE', #18, #286, #601, .T. ) ;
#559 = DIRECTION ( 'NONE',  ( 0.000000000000000000, 1.000000000000000000, 0.000000000000000000 ) ) ;
#560 = CARTESIAN_POINT ( 'NONE',  ( 4.000000000000000000, 0.000000000000000000, -16.84271928232701043 ) ) ;
#561 = DIRECTION ( 'NONE',  ( 0.000000000000000000, 1.000000000000000000, 0.000000000000000000 ) ) ;
#562 = ORIENTED_EDGE ( 'NONE', *, *, #225, .F. ) ;
#563 = EDGE_CURVE ( 'NONE', #151, #204, #423, .T. ) ;
#564 = CIRCLE ( 'NONE', #41, 56.00000000000000000 ) ;
#565 = ORIENTED_EDGE ( 'NONE', *, *, #563, .T. ) ;
#566 = DIRECTION ( 'NONE',  ( 0.000000000000000000, 0.000000000000000000, 1.000000000000000000 ) ) ;
#567 = ADVANCED_FACE ( 'NONE', ( #166 ), #42, .T. ) ;
#568 = VERTEX_POINT ( 'NONE', #554 ) ;
#569 = ORIENTED_EDGE ( 'NONE', *, *, #696, .F. ) ;
#570 = ORIENTED_EDGE ( 'NONE', *, *, #520, .F. ) ;
#571 = ORIENTED_EDGE ( 'NONE', *, *, #636, .T. ) ;
#572 = CARTESIAN_POINT ( 'NONE',  ( 0.000000000000000000, 20.00000000000000000, 0.000000000000000000 ) ) ;
#573 = FACE_OUTER_BOUND ( 'NONE', #652, .T. ) ;
#574 = ORIENTED_EDGE ( 'NONE', *, *, #319, .F. ) ;
#575 = CIRCLE ( 'NONE', #223, 7.500000000000000000 ) ;
#576 = ADVANCED_FACE ( 'NONE', ( #789, #605 ), #301, .T. ) ;
#577 = CYLINDRICAL_SURFACE ( 'NONE', #552, 7.500000000000000000 ) ;
#578 = FACE_OUTER_BOUND ( 'NONE', #502, .T. ) ;
#579 = DIRECTION ( 'NONE',  ( 0.000000000000000000, 0.000000000000000000, 1.000000000000000000 ) ) ;
#580 = ORIENTED_EDGE ( 'NONE', *, *, #786, .T. ) ;
#581 = APPLICATION_PROTOCOL_DEFINITION ( 'draft international standard', 'automotive_design', 1998, #371 ) ;
#582 = DIRECTION ( 'NONE',  ( -1.000000000000000000, 0.000000000000000000, 0.000000000000000000 ) ) ;
#583 = CARTESIAN_POINT ( 'NONE',  ( 0.000000000000000000, 0.000000000000000000, 12.50000000000000000 ) ) ;
#584 = CARTESIAN_POINT ( 'NONE',  ( 4.000000000000000000, 50.00000000000000000, -16.84271928232701043 ) ) ;
#585 = EDGE_CURVE ( 'NONE', #260, #663, #395, .T. ) ;
#586 = VERTEX_POINT ( 'NONE', #799 ) ;
#587 = VERTEX_POINT ( 'NONE', #335 ) ;
#588 = VECTOR ( 'NONE', #625, 1000.000000000000000 ) ;
#589 = CARTESIAN_POINT ( 'NONE',  ( 44.00000000000000000, 0.000000000000000000, 1.536251789090978676E-13 ) ) ;
#590 = VECTOR ( 'NONE', #309, 1000.000000000000000 ) ;
#591 = DIRECTION ( 'NONE',  ( 0.000000000000000000, 0.000000000000000000, 1.000000000000000000 ) ) ;
#592 = ORIENTED_EDGE ( 'NONE', *, *, #648, .T. ) ;
#593 = VERTEX_POINT ( 'NONE', #273 ) ;
#594 = LINE ( 'NONE', #535, #138 ) ;
#595 = DIRECTION ( 'NONE',  ( 0.000000000000000000, 0.000000000000000000, 1.000000000000000000 ) ) ;
#596 = AXIS2_PLACEMENT_3D ( 'NONE', #519, #208, #708 ) ;
#597 = CYLINDRICAL_SURFACE ( 'NONE', #795, 7.500000000000000000 ) ;
#598 = CARTESIAN_POINT ( 'NONE',  ( 0.000000000000000000, 47.99999999999998579, 0.000000000000000000 ) ) ;
#599 = ORIENTED_EDGE ( 'NONE', *, *, #186, .T. ) ;
#600 = ADVANCED_FACE ( 'NONE', ( #578 ), #521, .F. ) ;
#601 = LINE ( 'NONE', #733, #144 ) ;
#602 = AXIS2_PLACEMENT_3D ( 'NONE', #171, #428, #184 ) ;
#603 = CARTESIAN_POINT ( 'NONE',  ( -3.999999999999999112, 0.000000000000000000, -11.84271928232701221 ) ) ;
#604 = ORIENTED_EDGE ( 'NONE', *, *, #323, .T. ) ;
#605 = FACE_OUTER_BOUND ( 'NONE', #266, .T. ) ;
#606 =( NAMED_UNIT ( * ) PLANE_ANGLE_UNIT ( ) SI_UNIT ( $, .RADIAN. ) );
#607 = ADVANCED_FACE ( 'NONE', ( #84 ), #87, .F. ) ;
#608 = FACE_OUTER_BOUND ( 'NONE', #29, .T. ) ;
#609 = MANIFOLD_SOLID_BREP ( 'Chamfer1', #327 ) ;
#610 = FACE_OUTER_BOUND ( 'NONE', #709, .T. ) ;
#611 = CARTESIAN_POINT ( 'NONE',  ( -3.072503578181957353E-13, 20.00000000000000000, 44.00000000000000000 ) ) ;
#612 = VECTOR ( 'NONE', #622, 1000.000000000000000 ) ;
#613 = DIRECTION ( 'NONE',  ( 0.000000000000000000, 1.000000000000000000, 0.000000000000000000 ) ) ;
#614 = EDGE_CURVE ( 'NONE', #756, #160, #499, .T. ) ;
#615 = AXIS2_PLACEMENT_3D ( 'NONE', #292, #711, #538 ) ;
#616 = DIRECTION ( 'NONE',  ( 0.000000000000000000, -0.000000000000000000, 1.000000000000000000 ) ) ;
#617 = FACE_OUTER_BOUND ( 'NONE', #772, .T. ) ;
#618 = AXIS2_PLACEMENT_3D ( 'NONE', #284, #162, #403 ) ;
#619 = DIRECTION ( 'NONE',  ( 0.000000000000000000, 1.000000000000000000, 0.000000000000000000 ) ) ;
#620 = CARTESIAN_POINT ( 'NONE',  ( 0.000000000000000000, 47.99999999999998579, 0.000000000000000000 ) ) ;
#621 = CARTESIAN_POINT ( 'NONE',  ( 0.000000000000000000, 0.000000000000000000, 12.50000000000000000 ) ) ;
#622 = DIRECTION ( 'NONE',  ( -0.000000000000000000, -1.000000000000000000, -0.000000000000000000 ) ) ;
#623 = ORIENTED_EDGE ( 'NONE', *, *, #648, .F. ) ;
#624 = EDGE_CURVE ( 'NONE', #343, #593, #473, .T. ) ;
#625 = DIRECTION ( 'NONE',  ( -0.000000000000000000, 1.000000000000000000, -0.000000000000000000 ) ) ;
#626 = ORIENTED_EDGE ( 'NONE', *, *, #211, .F. ) ;
#627 = PRODUCT_DEFINITION_SHAPE ( 'NONE', 'NONE',  #666 ) ;
#628 = CARTESIAN_POINT ( 'NONE',  ( -3.072503578181957353E-13, 0.000000000000000000, 44.00000000000000000 ) ) ;
#629 = EDGE_CURVE ( 'NONE', #314, #127, #784, .T. ) ;
#630 = AXIS2_PLACEMENT_3D ( 'NONE', #113, #555, #123 ) ;
#631 = AXIS2_PLACEMENT_3D ( 'NONE', #742, #619, #137 ) ;
#632 = ORIENTED_EDGE ( 'NONE', *, *, #261, .F. ) ;
#633 = PRODUCT_DEFINITION_CONTEXT ( 'detailed design', #371, 'design' ) ;
#634 = CARTESIAN_POINT ( 'NONE',  ( -43.99999999999999289, 0.000000000000000000, -4.608755367272936534E-13 ) ) ;
#635 = CARTESIAN_POINT ( 'NONE',  ( 3.796405077356795115E-15, 12.00000000000000000, -31.00000000000000000 ) ) ;
#636 = EDGE_CURVE ( 'NONE', #756, #760, #741, .T. ) ;
#637 = VERTEX_POINT ( 'NONE', #444 ) ;
#638 = ORIENTED_EDGE ( 'NONE', *, *, #447, .T. ) ;
#639 = CARTESIAN_POINT ( 'NONE',  ( 0.000000000000000000, 12.00000000000000000, -21.00000000000000000 ) ) ;
#640 = PRODUCT ( 'chi ti\X2\1ebf\X0\t m\X2\1eb7\X0\t b\X2\00ed\X0\ch', 'chi ti\X2\1ebf\X0\t m\X2\1eb7\X0\t b\X2\00ed\X0\ch', '', ( #457 ) ) ;
#641 = LINE ( 'NONE', #583, #207 ) ;
#642 = AXIS2_PLACEMENT_3D ( 'NONE', #367, #480, #50 ) ;
#643 = ORIENTED_EDGE ( 'NONE', *, *, #493, .F. ) ;
#644 = CARTESIAN_POINT ( 'NONE',  ( -43.99999999999999289, 0.000000000000000000, -4.608755367272936534E-13 ) ) ;
#645 = CARTESIAN_POINT ( 'NONE',  ( 0.000000000000000000, 0.000000000000000000, -44.00000000000000000 ) ) ;
#646 = ADVANCED_BREP_SHAPE_REPRESENTATION ( 'chi ti\X2\1ebf\X0\t m\X2\1eb7\X0\t b\X2\00ed\X0\ch', ( #609, #425 ), #131 ) ;
#647 = ORIENTED_EDGE ( 'NONE', *, *, #82, .T. ) ;
#648 = EDGE_CURVE ( 'NONE', #586, #205, #341, .T. ) ;
#649 = CARTESIAN_POINT ( 'NONE',  ( 0.000000000000000000, 20.00000000000000000, -56.00000000000000000 ) ) ;
#650 = CARTESIAN_POINT ( 'NONE',  ( 2.449293598294705724E-15, 50.00000000000000000, 18.99999999999998934 ) ) ;
#651 = LINE ( 'NONE', #86, #679 ) ;
#652 = EDGE_LOOP ( 'NONE', ( #638, #537 ) ) ;
#653 = EDGE_LOOP ( 'NONE', ( #780, #317, #218, #507 ) ) ;
#654 = AXIS2_PLACEMENT_3D ( 'NONE', #161, #117, #488 ) ;
#655 = CARTESIAN_POINT ( 'NONE',  ( 0.000000000000000000, 0.000000000000000000, -36.50000000000000000 ) ) ;
#656 = CARTESIAN_POINT ( 'NONE',  ( 0.000000000000000000, 12.00000000000000000, 0.000000000000000000 ) ) ;
#657 = ORIENTED_EDGE ( 'NONE', *, *, #753, .T. ) ;
#658 = CARTESIAN_POINT ( 'NONE',  ( -43.99999999999999289, 20.00000000000000000, -4.608755367272936534E-13 ) ) ;
#659 =( NAMED_UNIT ( * ) SI_UNIT ( $, .STERADIAN. ) SOLID_ANGLE_UNIT ( ) );
#660 = VECTOR ( 'NONE', #474, 1000.000000000000000 ) ;
#661 = FACE_OUTER_BOUND ( 'NONE', #64, .T. ) ;
#662 = ADVANCED_FACE ( 'NONE', ( #364, #245, #489, #737, #497, #672 ), #435, .F. ) ;
#663 = VERTEX_POINT ( 'NONE', #308 ) ;
#664 = LINE ( 'NONE', #298, #461 ) ;
#665 = DIRECTION ( 'NONE',  ( 0.000000000000000000, 1.000000000000000000, 0.000000000000000000 ) ) ;
#666 = PRODUCT_DEFINITION ( 'UNKNOWN', '', #104, #633 ) ;
#667 = CARTESIAN_POINT ( 'NONE',  ( 0.000000000000000000, 20.00000000000000000, 0.000000000000000000 ) ) ;
#668 = DIRECTION ( 'NONE',  ( 0.000000000000000000, 0.000000000000000000, 1.000000000000000000 ) ) ;
#669 =( GEOMETRIC_REPRESENTATION_CONTEXT ( 3 ) GLOBAL_UNCERTAINTY_ASSIGNED_CONTEXT ( ( #293 ) ) GLOBAL_UNIT_ASSIGNED_CONTEXT ( ( #542, #606, #659 ) ) REPRESENTATION_CONTEXT ( 'NONE', 'WORKASPACE' ) );
#670 = CARTESIAN_POINT ( 'NONE',  ( 4.000000000000003553, 0.000000000000000000, -11.84271928232701043 ) ) ;
#671 = DIRECTION ( 'NONE',  ( 0.000000000000000000, 0.000000000000000000, 1.000000000000000000 ) ) ;
#672 = FACE_OUTER_BOUND ( 'NONE', #210, .T. ) ;
#673 = EDGE_CURVE ( 'NONE', #286, #275, #564, .T. ) ;
#674 = LINE ( 'NONE', #670, #349 ) ;
#675 = DIRECTION ( 'NONE',  ( 0.000000000000000000, 0.000000000000000000, 1.000000000000000000 ) ) ;
#676 = DIRECTION ( 'NONE',  ( 0.000000000000000000, 1.000000000000000000, 0.000000000000000000 ) ) ;
#677 = CARTESIAN_POINT ( 'NONE',  ( 3.796405077356795115E-15, 20.00000000000000000, -31.00000000000000000 ) ) ;
#678 = ORIENTED_EDGE ( 'NONE', *, *, #757, .T. ) ;
#679 = VECTOR ( 'NONE', #582, 1000.000000000000000 ) ;
#680 = CYLINDRICAL_SURFACE ( 'NONE', #501, 56.00000000000000000 ) ;
#681 = CARTESIAN_POINT ( 'NONE',  ( 0.000000000000000000, 20.00000000000000000, 0.000000000000000000 ) ) ;
#682 = AXIS2_PLACEMENT_3D ( 'NONE', #239, #236, #55 ) ;
#683 = DIRECTION ( 'NONE',  ( -1.000000000000000000, 0.000000000000000000, 1.734723475976807341E-16 ) ) ;
#684 = EDGE_LOOP ( 'NONE', ( #743, #647, #46, #471 ) ) ;
#685 = DIRECTION ( 'NONE',  ( 0.000000000000000000, 0.000000000000000000, 1.000000000000000000 ) ) ;
#686 = ORIENTED_EDGE ( 'NONE', *, *, #707, .T. ) ;
#687 = EDGE_CURVE ( 'NONE', #456, #151, #8, .T. ) ;
#688 = ORIENTED_EDGE ( 'NONE', *, *, #707, .F. ) ;
#689 = DIRECTION ( 'NONE',  ( 0.000000000000000000, 0.000000000000000000, 1.000000000000000000 ) ) ;
#690 = ORIENTED_EDGE ( 'NONE', *, *, #504, .F. ) ;
#691 = EDGE_LOOP ( 'NONE', ( #33, #446, #168, #632 ) ) ;
#692 = CIRCLE ( 'NONE', #384, 7.500000000000000000 ) ;
#693 = AXIS2_PLACEMENT_3D ( 'NONE', #628, #237, #566 ) ;
#694 = AXIS2_PLACEMENT_3D ( 'NONE', #634, #15, #322 ) ;
#695 = CARTESIAN_POINT ( 'NONE',  ( 0.000000000000000000, 20.00000000000000000, 0.000000000000000000 ) ) ;
#696 = EDGE_CURVE ( 'NONE', #205, #586, #575, .T. ) ;
#697 = ORIENTED_EDGE ( 'NONE', *, *, #234, .T. ) ;
#698 = EDGE_LOOP ( 'NONE', ( #70, #510, #702, #467 ) ) ;
#699 = VECTOR ( 'NONE', #102, 1000.000000000000000 ) ;
#700 = DIRECTION ( 'NONE',  ( -0.000000000000000000, 1.000000000000000000, -0.000000000000000000 ) ) ;
#701 = PRODUCT_RELATED_PRODUCT_CATEGORY ( 'part', '', ( #640 ) ) ;
#702 = ORIENTED_EDGE ( 'NONE', *, *, #398, .T. ) ;
#703 = DIRECTION ( 'NONE',  ( -0.000000000000000000, -1.000000000000000000, -0.000000000000000000 ) ) ;
#704 = CARTESIAN_POINT ( 'NONE',  ( 0.000000000000000000, 0.000000000000000000, 0.000000000000000000 ) ) ;
#705 = EDGE_LOOP ( 'NONE', ( #514, #91, #534, #80 ) ) ;
#706 = VECTOR ( 'NONE', #109, 999.9999999999998863 ) ;
#707 = EDGE_CURVE ( 'NONE', #587, #244, #316, .T. ) ;
#708 = DIRECTION ( 'NONE',  ( 0.000000000000000000, 0.000000000000000000, 1.000000000000000000 ) ) ;
#709 = EDGE_LOOP ( 'NONE', ( #242, #688, #89, #7 ) ) ;
#710 = EDGE_LOOP ( 'NONE', ( #391, #574 ) ) ;
#711 = DIRECTION ( 'NONE',  ( 0.000000000000000000, -1.000000000000000000, 0.000000000000000000 ) ) ;
#712 = CIRCLE ( 'NONE', #766, 21.00000000000000000 ) ;
#713 = CARTESIAN_POINT ( 'NONE',  ( 0.000000000000000000, 0.000000000000000000, 0.000000000000000000 ) ) ;
#714 = ORIENTED_EDGE ( 'NONE', *, *, #2, .T. ) ;
#715 = ORIENTED_EDGE ( 'NONE', *, *, #347, .F. ) ;
#716 = DIRECTION ( 'NONE',  ( 0.000000000000000000, 0.000000000000000000, 1.000000000000000000 ) ) ;
#717 = FACE_BOUND ( 'NONE', #253, .T. ) ;
#718 = EDGE_LOOP ( 'NONE', ( #455, #259, #187, #189 ) ) ;
#719 = ORIENTED_EDGE ( 'NONE', *, *, #379, .T. ) ;
#720 = AXIS2_PLACEMENT_3D ( 'NONE', #804, #170, #227 ) ;
#721 = CARTESIAN_POINT ( 'NONE',  ( 0.000000000000000000, 50.00000000000000000, 0.000000000000000000 ) ) ;
#722 = EDGE_CURVE ( 'NONE', #73, #74, #747, .T. ) ;
#723 = LINE ( 'NONE', #469, #699 ) ;
#724 = EDGE_LOOP ( 'NONE', ( #156, #344, #250, #483 ) ) ;
#725 = FACE_OUTER_BOUND ( 'NONE', #691, .T. ) ;
#726 = DIRECTION ( 'NONE',  ( -0.000000000000000000, 1.000000000000000000, -0.000000000000000000 ) ) ;
#727 = DIRECTION ( 'NONE',  ( -0.000000000000000000, -1.000000000000000000, -0.000000000000000000 ) ) ;
#728 = VECTOR ( 'NONE', #241, 1000.000000000000000 ) ;
#729 = CARTESIAN_POINT ( 'NONE',  ( 0.000000000000000000, 20.00000000000000000, 0.000000000000000000 ) ) ;
#730 = ORIENTED_EDGE ( 'NONE', *, *, #374, .F. ) ;
#731 = ORIENTED_EDGE ( 'NONE', *, *, #516, .F. ) ;
#732 = ADVANCED_FACE ( 'NONE', ( #617 ), #376, .F. ) ;
#733 = CARTESIAN_POINT ( 'NONE',  ( 6.858022075225178552E-15, 20.00000000000000000, 56.00000000000000000 ) ) ;
#734 = VECTOR ( 'NONE', #106, 1000.000000000000000 ) ;
#735 = DIRECTION ( 'NONE',  ( 0.000000000000000000, 0.000000000000000000, 1.000000000000000000 ) ) ;
#736 = DIRECTION ( 'NONE',  ( 0.000000000000000000, 0.000000000000000000, -1.000000000000000000 ) ) ;
#737 = FACE_BOUND ( 'NONE', #378, .T. ) ;
#738 = CARTESIAN_POINT ( 'NONE',  ( 0.000000000000000000, 12.00000000000000000, 31.00000000000000000 ) ) ;
#739 = AXIS2_PLACEMENT_3D ( 'NONE', #31, #299, #356 ) ;
#740 = CARTESIAN_POINT ( 'NONE',  ( 0.000000000000000000, 50.00000000000000000, 0.000000000000000000 ) ) ;
#741 = LINE ( 'NONE', #110, #588 ) ;
#742 = CARTESIAN_POINT ( 'NONE',  ( 0.000000000000000000, 0.000000000000000000, -44.00000000000000000 ) ) ;
#743 = ORIENTED_EDGE ( 'NONE', *, *, #629, .F. ) ;
#744 = ORIENTED_EDGE ( 'NONE', *, *, #38, .T. ) ;
#745 = DIRECTION ( 'NONE',  ( 0.000000000000000000, 1.000000000000000000, 0.000000000000000000 ) ) ;
#746 = VECTOR ( 'NONE', #277, 1000.000000000000000 ) ;
#747 = CIRCLE ( 'NONE', #439, 12.50000000000000000 ) ;
#748 = DIRECTION ( 'NONE',  ( -0.000000000000000000, 1.000000000000000000, -0.000000000000000000 ) ) ;
#749 = EDGE_CURVE ( 'NONE', #17, #219, #539, .T. ) ;
#750 = ORIENTED_EDGE ( 'NONE', *, *, #409, .F. ) ;
#751 = ORIENTED_EDGE ( 'NONE', *, *, #2, .F. ) ;
#752 = CYLINDRICAL_SURFACE ( 'NONE', #28, 56.00000000000000000 ) ;
#753 = EDGE_CURVE ( 'NONE', #568, #69, #302, .T. ) ;
#754 = CIRCLE ( 'NONE', #431, 7.500000000000000000 ) ;
#755 = ORIENTED_EDGE ( 'NONE', *, *, #32, .T. ) ;
#756 = VERTEX_POINT ( 'NONE', #63 ) ;
#757 = EDGE_CURVE ( 'NONE', #18, #326, #357, .T. ) ;
#758 = VERTEX_POINT ( 'NONE', #621 ) ;
#759 = VECTOR ( 'NONE', #111, 1000.000000000000000 ) ;
#760 = VERTEX_POINT ( 'NONE', #60 ) ;
#761 = CARTESIAN_POINT ( 'NONE',  ( 0.000000000000000000, 50.00000000000000000, 0.000000000000000000 ) ) ;
#762 = DIRECTION ( 'NONE',  ( 0.000000000000000000, 0.000000000000000000, 1.000000000000000000 ) ) ;
#763 = VERTEX_POINT ( 'NONE', #312 ) ;
#764 = ORIENTED_EDGE ( 'NONE', *, *, #190, .F. ) ;
#765 = DIRECTION ( 'NONE',  ( 0.000000000000000000, 0.000000000000000000, 1.000000000000000000 ) ) ;
#766 = AXIS2_PLACEMENT_3D ( 'NONE', #429, #294, #591 ) ;
#767 = CARTESIAN_POINT ( 'NONE',  ( -3.063318727188351838E-13, 20.00000000000000000, 36.50000000000000000 ) ) ;
#768 = ORIENTED_EDGE ( 'NONE', *, *, #585, .F. ) ;
#769 = ORIENTED_EDGE ( 'NONE', *, *, #426, .T. ) ;
#770 = DIRECTION ( 'NONE',  ( -0.000000000000000000, 1.000000000000000000, -0.000000000000000000 ) ) ;
#771 = EDGE_CURVE ( 'NONE', #637, #406, #251, .T. ) ;
#772 = EDGE_LOOP ( 'NONE', ( #730, #100, #136, #626 ) ) ;
#773 = AXIS2_PLACEMENT_3D ( 'NONE', #721, #146, #25 ) ;
#774 = AXIS2_PLACEMENT_3D ( 'NONE', #134, #561, #313 ) ;
#775 = AXIS2_PLACEMENT_3D ( 'NONE', #681, #315, #372 ) ;
#776 = CARTESIAN_POINT ( 'NONE',  ( 0.000000000000000000, 0.000000000000000000, -56.00000000000000000 ) ) ;
#777 = ORIENTED_EDGE ( 'NONE', *, *, #379, .F. ) ;
#778 = CARTESIAN_POINT ( 'NONE',  ( 0.000000000000000000, 50.00000000000000000, -18.99999999999998934 ) ) ;
#779 = DIRECTION ( 'NONE',  ( -0.000000000000000000, -1.000000000000000000, -0.000000000000000000 ) ) ;
#780 = ORIENTED_EDGE ( 'NONE', *, *, #479, .F. ) ;
#781 = ADVANCED_FACE ( 'NONE', ( #503 ), #752, .T. ) ;
#782 = DIRECTION ( 'NONE',  ( 0.000000000000000000, 1.000000000000000000, 0.000000000000000000 ) ) ;
#783 = LINE ( 'NONE', #222, #660 ) ;
#784 = CIRCLE ( 'NONE', #693, 7.500000000000000000 ) ;
#785 = DIRECTION ( 'NONE',  ( 0.000000000000000000, -0.000000000000000000, 1.000000000000000000 ) ) ;
#786 = EDGE_CURVE ( 'NONE', #160, #756, #527, .T. ) ;
#787 = DIRECTION ( 'NONE',  ( 0.000000000000000000, 1.000000000000000000, 0.000000000000000000 ) ) ;
#788 = VERTEX_POINT ( 'NONE', #257 ) ;
#789 = FACE_BOUND ( 'NONE', #803, .T. ) ;
#790 = CARTESIAN_POINT ( 'NONE',  ( 0.000000000000000000, 0.000000000000000000, 0.000000000000000000 ) ) ;
#791 = EDGE_CURVE ( 'NONE', #26, #788, #306, .T. ) ;
#792 = LINE ( 'NONE', #491, #103 ) ;
#793 = SURFACE_STYLE_FILL_AREA ( #35 ) ;
#794 = FACE_BOUND ( 'NONE', #193, .T. ) ;
#795 = AXIS2_PLACEMENT_3D ( 'NONE', #413, #212, #34 ) ;
#796 = DIRECTION ( 'NONE',  ( 0.000000000000000000, 1.000000000000000000, 0.000000000000000000 ) ) ;
#797 = CIRCLE ( 'NONE', #654, 7.500000000000000000 ) ;
#798 = CARTESIAN_POINT ( 'NONE',  ( 44.00000000000000000, 20.00000000000000000, 7.500000000000153655 ) ) ;
#799 = CARTESIAN_POINT ( 'NONE',  ( -3.072503578181957353E-13, 20.00000000000000000, 51.50000000000000000 ) ) ;
#800 = CARTESIAN_POINT ( 'NONE',  ( 0.000000000000000000, 0.000000000000000000, 0.000000000000000000 ) ) ;
#801 = FACE_OUTER_BOUND ( 'NONE', #438, .T. ) ;
#802 = AXIS2_PLACEMENT_3D ( 'NONE', #729, #49, #547 ) ;
#803 = EDGE_LOOP ( 'NONE', ( #321, #449 ) ) ;
#804 = CARTESIAN_POINT ( 'NONE',  ( 44.00000000000000000, 20.00000000000000000, 1.536251789090978676E-13 ) ) ;
ENDSEC;
END-ISO-10303-21;
